<svg width="200" height="44" viewBox="0 0 200 44" fill="none" xmlns="http://www.w3.org/2000/svg">
<path d="M6.00178 35.11C6.00178 36.55 5.11678 37.27 3.34678 37.27C1.57678 37.27 0.691776 36.55 0.691776 35.11V3.97C0.691776 3.28 0.886776 2.665 1.27678 2.125C1.66678 1.555 2.41678 1.27 3.52678 1.27H18.8268C19.9068 1.27 20.4768 2.02 20.5368 3.52C20.5968 5.05 20.0268 5.815 18.8268 5.815H6.00178V35.11ZM17.5218 18.415C17.5218 18.925 17.4168 19.42 17.2068 19.9C17.0268 20.35 16.7568 20.74 16.3968 21.07C16.0668 21.4 15.6768 21.67 15.2268 21.88C14.7768 22.06 14.2818 22.15 13.7418 22.15C12.7218 22.15 11.8518 21.79 11.1318 21.07C10.4118 20.35 10.0518 19.465 10.0518 18.415C10.0518 17.365 10.4118 16.48 11.1318 15.76C11.8518 15.04 12.7218 14.68 13.7418 14.68C14.2818 14.68 14.7768 14.785 15.2268 14.995C15.6768 15.175 16.0668 15.445 16.3968 15.805C16.7568 16.135 17.0268 16.525 17.2068 16.975C17.4168 17.425 17.5218 17.905 17.5218 18.415ZM33.3069 35.245C33.3069 36.655 32.4819 37.36 30.8319 37.36C29.1519 37.36 28.3119 36.655 28.3119 35.245V2.98C28.3119 1.57 29.1519 0.864999 30.8319 0.864999C32.4819 0.864999 33.3069 1.57 33.3069 2.98V35.245ZM47.7498 35.11C47.7498 36.55 46.9248 37.27 45.2748 37.27C43.5948 37.27 42.7548 36.55 42.7548 35.11V11.89C42.7548 10.45 43.5948 9.73 45.2748 9.73C46.9248 9.73 47.7498 10.45 47.7498 11.89V35.11ZM48.6948 4.06C48.6948 5.02 48.3648 5.83 47.7048 6.49C47.0448 7.15 46.2348 7.48 45.2748 7.48C44.3148 7.48 43.4898 7.15 42.7998 6.49C42.1398 5.83 41.8098 5.02 41.8098 4.06C41.8098 3.07 42.1398 2.245 42.7998 1.585C43.4898 0.924999 44.3148 0.594999 45.2748 0.594999C46.2348 0.594999 47.0448 0.924999 47.7048 1.585C48.3648 2.245 48.6948 3.07 48.6948 4.06ZM66.2427 37C65.1627 37 64.5927 36.295 64.5327 34.885C64.5327 33.475 65.1027 32.77 66.2427 32.77H70.7877C71.8977 32.77 72.6777 32.455 73.1277 31.825C73.6077 31.195 73.8477 30.52 73.8477 29.8V17.11C73.8477 16.36 73.6077 15.67 73.1277 15.04C72.6777 14.38 71.8827 14.08 70.7427 14.14H62.1027V41.185C62.1027 42.595 61.2777 43.3 59.6277 43.3C57.9777 43.3 57.1527 42.58 57.1527 41.14V12.565C57.1527 11.515 57.4227 10.81 57.9627 10.45C58.5027 10.09 59.1627 9.91 59.9427 9.91H71.5977C72.3777 9.91 73.1577 10.045 73.9377 10.315C74.7477 10.585 75.5727 10.96 76.4127 11.44C77.1327 11.95 77.7027 12.67 78.1227 13.6C78.5727 14.5 78.7977 15.565 78.7977 16.795V30.115C78.7977 32.575 78.0027 34.33 76.4127 35.38C74.7327 36.46 73.1277 37 71.5977 37H66.2427ZM96.6828 37C95.6028 37 95.0328 36.295 94.9728 34.885C94.9728 33.475 95.5428 32.77 96.6828 32.77H101.228C102.338 32.77 103.118 32.455 103.568 31.825C104.048 31.195 104.288 30.52 104.288 29.8V17.11C104.288 16.36 104.048 15.67 103.568 15.04C103.118 14.38 102.323 14.08 101.183 14.14H92.5428V41.185C92.5428 42.595 91.7178 43.3 90.0678 43.3C88.4178 43.3 87.5928 42.58 87.5928 41.14V12.565C87.5928 11.515 87.8628 10.81 88.4028 10.45C88.9428 10.09 89.6028 9.91 90.3828 9.91H102.038C102.818 9.91 103.598 10.045 104.378 10.315C105.188 10.585 106.013 10.96 106.853 11.44C107.573 11.95 108.143 12.67 108.563 13.6C109.013 14.5 109.238 15.565 109.238 16.795V30.115C109.238 32.575 108.443 34.33 106.853 35.38C105.173 36.46 103.568 37 102.038 37H96.6828ZM121.318 37.045C120.208 37.045 119.458 36.76 119.068 36.19C118.678 35.62 118.483 34.99 118.483 34.3V3.97C118.483 3.28 118.678 2.665 119.068 2.125C119.458 1.555 120.208 1.27 121.318 1.27H136.978C138.088 1.27 138.673 2.02 138.733 3.52C138.793 5.05 138.208 5.815 136.978 5.815H123.793V32.5H137.788C138.898 32.5 139.468 33.235 139.498 34.705C139.558 36.265 138.988 37.045 137.788 37.045H121.318ZM135.313 18.415C135.313 19.465 134.938 20.35 134.188 21.07C133.468 21.79 132.583 22.15 131.533 22.15C130.513 22.15 129.643 21.79 128.923 21.07C128.203 20.35 127.843 19.465 127.843 18.415C127.843 17.365 128.203 16.48 128.923 15.76C129.643 15.04 130.513 14.68 131.533 14.68C132.583 14.68 133.468 15.04 134.188 15.76C134.938 16.48 135.313 17.365 135.313 18.415ZM163.806 14.14H155.121C153.891 14.14 153.081 14.5 152.691 15.22C152.271 15.85 152.061 16.585 152.061 17.425V30.385C152.061 31.165 152.301 31.765 152.781 32.185C153.261 32.575 154.056 32.77 155.166 32.77H159.801C160.881 32.77 161.421 33.475 161.421 34.885C161.421 35.485 161.286 35.995 161.016 36.415C160.776 36.805 160.371 37 159.801 37H154.356C152.466 37 150.786 36.52 149.316 35.56C147.846 34.66 147.111 32.95 147.111 30.43V17.02C147.111 15.79 147.306 14.725 147.696 13.825C148.086 12.925 148.701 12.19 149.541 11.62C151.131 10.48 152.721 9.91 154.311 9.91H163.806V3.16C163.806 1.72 164.631 0.999999 166.281 0.999999C167.931 0.999999 168.756 1.72 168.756 3.16V35.11C168.756 36.55 167.931 37.27 166.281 37.27C165.651 37.27 165.081 37.165 164.571 36.955C164.061 36.715 163.806 36.205 163.806 35.425V14.14ZM199.503 29.845C199.503 31.045 199.293 32.11 198.873 33.04C198.453 33.97 197.853 34.72 197.073 35.29H197.118C196.368 35.8 195.573 36.22 194.733 36.55C193.893 36.85 193.083 37 192.303 37H185.058C184.308 37 183.498 36.85 182.628 36.55C181.788 36.22 180.993 35.8 180.243 35.29H180.288C179.508 34.72 178.908 33.97 178.488 33.04C178.068 32.11 177.858 31.045 177.858 29.845V11.8C177.858 10.36 178.683 9.64 180.333 9.64C181.983 9.64 182.808 10.36 182.808 11.8V29.485C182.808 30.325 183.018 31.06 183.438 31.69C183.828 32.41 184.638 32.77 185.868 32.77H191.493C192.693 32.77 193.488 32.41 193.878 31.69L193.833 31.735C194.313 31.015 194.553 30.265 194.553 29.485V11.8C194.553 10.36 195.378 9.64 197.028 9.64C198.678 9.64 199.503 10.36 199.503 11.8V29.845Z" fill="url(#paint0_radial_476_3014)"/>
<defs>
<radialGradient id="paint0_radial_476_3014" cx="0" cy="0" r="1" gradientUnits="userSpaceOnUse" gradientTransform="translate(99.5 21) scale(102.5 28)">
<stop stop-color="#C27A57"/>
<stop offset="1" stop-color="#7B5645"/>
</radialGradient>
</defs>
</svg>
