<svg width="93" height="86" viewBox="0 0 93 86" fill="none" xmlns="http://www.w3.org/2000/svg">
<rect x="21.6" y="28.4" width="50.4" height="57.6" rx="12" fill="#C27A57"/>
<circle cx="34.0001" cy="74.4" r="3.6" fill="#232323"/>
<circle cx="46.8001" cy="74.4" r="3.6" fill="#232323"/>
<circle cx="59.6001" cy="74.4" r="3.6" fill="#232323"/>
<path d="M17.6 33.6L21.9781 27.6298C24.8769 23.677 28.7474 20.5399 33.2147 18.5224V18.5224C36.896 16.8599 40.8891 16 44.9285 16H48.8832C53.806 16 58.6406 17.307 62.8928 19.7875V19.7875C64.9557 20.9908 66.8549 22.4549 68.5436 24.1436L69.4623 25.0623C71.4149 27.0149 73.1479 29.1753 74.6305 31.505L75.2 32.4M10.8 72L8.02125 67.4662C4.84873 62.29 2.8956 56.4546 2.31081 50.4117V50.4117C2.10405 48.2752 2.06943 46.1238 2.20763 43.9817L2.33168 42.0589C2.64136 37.259 3.81419 32.5543 5.79387 28.1707L5.97619 27.767C7.5834 24.2082 9.70307 20.9039 12.2677 17.9593L14.4787 15.4207C17.596 11.8416 21.3843 8.90784 25.6296 6.78521V6.78521C27.7382 5.73091 29.9444 4.8843 32.217 4.25738L34.2634 3.69286C38.3289 2.57134 42.5462 2.09982 46.759 2.29577L51.0932 2.49736C55.4027 2.6978 59.6513 3.59407 63.6746 5.15144L63.8766 5.22967C67.9317 6.79939 71.7038 9.01981 75.0442 11.8035L75.2872 12.006C78.1484 14.3903 80.6625 17.1626 82.7568 20.2424L84.2308 22.4101C85.6736 24.5318 86.9089 26.7874 87.9196 29.1457L88.0502 29.4504C89.3451 32.472 90.2627 35.6416 90.782 38.8876L90.8617 39.3857C91.3522 42.4515 91.4842 45.5639 91.2548 48.6602L91.168 49.8319C90.9236 53.1312 90.2708 56.3875 89.2246 59.5261L89.1262 59.8215C88.3769 62.0694 87.4293 64.2463 86.2947 66.3264L83.2 72" stroke="#C27A57" stroke-opacity="0.4" stroke-width="3.2" stroke-linecap="round"/>
</svg>
