<svg width="31" height="49" viewBox="0 0 31 49" fill="none" xmlns="http://www.w3.org/2000/svg">
<rect x="4.7" y="17.0415" width="21.6" height="31.2" rx="4.2" fill="url(#paint0_linear_259_2248)" stroke="url(#paint1_linear_259_2248)" stroke-width="1.2"/>
<circle cx="15.2" cy="26.3416" r="3.3" fill="#333333" stroke="#333333" stroke-width="1.2"/>
<circle cx="10.4" cy="39.5416" r="2.1" fill="#333333" stroke="#333333" stroke-width="1.2"/>
<circle cx="20" cy="39.5416" r="2.1" fill="#333333" stroke="#333333" stroke-width="1.2"/>
<path d="M7.10001 12.2415C9.51993 10.222 11.1026 9.39749 14.9 9.24153C18.7665 9.38492 20.6057 9.95228 23.3 12.2415M1.70001 8.04153C3.87808 5.60567 5.45198 4.31867 9.02756 3.01387C9.73635 2.75522 10.4757 2.58507 11.2247 2.49419C14.2724 2.1244 16.4006 2.1307 19.3691 2.45642C20.387 2.5681 21.3869 2.8217 22.3263 3.22902C25.2053 4.47722 26.8969 5.66436 29.3 8.04153" stroke="url(#paint2_linear_259_2248)" stroke-width="2.88" stroke-linecap="round"/>
<defs>
<linearGradient id="paint0_linear_259_2248" x1="15.5" y1="17.6415" x2="15.5" y2="47.6415" gradientUnits="userSpaceOnUse">
<stop stop-color="#C27A57"/>
<stop offset="1" stop-color="#8D5B42"/>
</linearGradient>
<linearGradient id="paint1_linear_259_2248" x1="15.5" y1="17.6415" x2="15.5" y2="47.6415" gradientUnits="userSpaceOnUse">
<stop stop-color="#C27A57"/>
<stop offset="1" stop-color="#8D5B42"/>
</linearGradient>
<linearGradient id="paint2_linear_259_2248" x1="15.5" y1="2.21436" x2="15.5" y2="12.2415" gradientUnits="userSpaceOnUse">
<stop stop-color="#C27A57"/>
<stop offset="1" stop-color="#8D5B42"/>
</linearGradient>
</defs>
</svg>
