<svg width="45" height="45" viewBox="0 0 45 45" fill="none" xmlns="http://www.w3.org/2000/svg">
<path d="M20.2749 10.4C16.8816 11.6563 14.8595 12.522 12.845 14.6674C12.1671 15.3894 11.6493 16.249 11.2907 17.1721C10.1721 20.0519 10.149 22.0848 10.9838 25.0374C11.1657 25.6808 11.423 26.3036 11.743 26.8906C13.4902 30.0956 15.0085 31.4891 17.6258 32.7955C18.1857 33.0749 18.7756 33.2924 19.3826 33.4442C22.1347 34.1327 23.7668 34.0112 26.2749 33.2C28.7072 32.053 30.3399 31.1369 31.4876 29.6548C32.0909 28.8757 32.6452 28.0493 33.1374 27.1956C34.1131 25.5034 34.0184 23.9142 34.0749 21.2M22.0748 2C16.7524 2.55624 14.2899 3.40394 10.6748 5.6C6.1714 8.7446 4.88152 10.7816 3.47485 14.6C2.06188 18.0079 1.80714 20.7853 2.11781 25.6757C2.20715 27.082 2.55805 28.4639 3.16682 29.7348C5.17647 33.9304 7.06341 36.6152 10.8607 39.7335C11.9098 40.5951 13.1291 41.2327 14.4328 41.6114C19.0803 42.9616 22.0908 43.0158 26.8748 42.2C32.01 40.9527 34.5861 39.1686 38.0026 35.8602C38.9886 34.9054 39.7914 33.7719 40.3585 32.522C42.5938 27.5952 42.9654 25.1112 42.4749 21.8" stroke="#C27A57" stroke-width="2.88" stroke-linecap="round"/>
<circle cx="34.3749" cy="5.89985" r="2.7" fill="#C27A57" stroke="#C27A57" stroke-width="1.2"/>
<path d="M30.3434 13.7745C30.7574 13.257 30.6735 12.5018 30.156 12.0878C29.6385 11.6738 28.8833 11.7577 28.4693 12.2752L30.3434 13.7745ZM24.6064 19.0249L25.5434 19.7745L30.3434 13.7745L29.4064 13.0249L28.4693 12.2752L23.6693 18.2752L24.6064 19.0249Z" fill="#C27A57"/>
<circle cx="22.0749" cy="21.1999" r="3.6" fill="#C27A57" stroke="#C27A57" stroke-width="1.2"/>
</svg>
